# xmcd CD database file
#
# Track frame offsets:
#	150
#	16119
#	33514
#	47376
#	55665
#	68752
#	74273
#	79534
#	94197
#	107924
#	120381
#	135814
#	149665
#	164146
#	166769
#	182181
#	195085
#	210482
#	220129
#	229698
#	245766
#	262297
#
# Disc length: 3699 seconds
#
# Revision: 9
# Processed by: cddbd v1.5.2PL0 Copyright (c) Steve Scherf et al.
# Submitted via: CDex 1.51
#
DISCID=300e7116
DTITLE=Muddy Waters - The Complete Plantation Recordings - The Historic 1941-42 Library Of Congress Field Recordings
DYEAR=1993
DGENRE=Blues
TTITLE0=Country Blues (Number One)
TTITLE1=Interview #1
TTITLE2=I Be's Troubled
TTITLE3=Interview #2
TTITLE4=Burr Clover Farm Blues
TTITLE5=Interview #3
TTITLE6=Ramblin' Kid Blues (Partial)
TTITLE7=Ramblin' Kid Blues
TTITLE8=Rosalie
TTITLE9=Joe Turner (Vocal by Louis Ford)
TTITLE10=Pearlie May Blues (Vocal by Percy Thomas)
TTITLE11=Take A Walk With Me (Second Guitar by Son Simms)
TTITLE12=Burr Clover Blues (Second Guitar by Son Simms)
TTITLE13=Interview #4
TTITLE14=I Be Bound To Write To You (First Version) (Second Guitar by Charles Berry)
TTITLE15=I Be Bound To Write To You (Second Version) (Second Guitar by Charles Berry)
TTITLE16=You're Gonna Miss Me When I'm Gone (Number One)
TTITLE17=You Got To Take Sick And Die Some Of Those Days
TTITLE18=Why Don't You Live So God Can Use You
TTITLE19=Country Blues (Number Two)
TTITLE20=You're Gonna Miss Me When I'm Gone (Number Two)
TTITLE21=32-20 Blues (Second Guitar by Charles Berry)
EXTD=YEAR: 1993
EXTT0=
EXTT1=
EXTT2=
EXTT3=
EXTT4=
EXTT5=
EXTT6=
EXTT7=
EXTT8=
EXTT9=
EXTT10=
EXTT11=
EXTT12=
EXTT13=
EXTT14=
EXTT15=
EXTT16=
EXTT17=
EXTT18=
EXTT19=
EXTT20=
EXTT21=
PLAYORDER=
